<svg version="1" xmlns="http://www.w3.org/2000/svg" width="682.667" height="682.667" viewBox="0 0 512.000000 512.000000"><path d="M29.4 118.7l.1 45.8 142 .1c107.1.1 143.5.4 148 1.3 29 5.9 52.7 23.6 65.6 49 2.2 4.5 4.2 8.7 4.3 9.4.1.6 1 3.7 2 6.7 2.5 8.2 3.1 13.2 3 27-.1 20.2-5.6 36.3-18.1 53-8 10.8-19.8 20.6-32.3 27-6.2 3.1-20.2 7.6-27 8.5-10 1.5-27.8.6-33.6-1.5-1.3-.5-2.4-.8-2.4-.5 0 .6-9.9-2.9-16.4-5.9-12.6-5.8-28.4-19.1-36.3-30.7-9-13.1-14.7-29.5-15.8-45.4-.2-2.2-.4-4.6-.4-5.3-.1-.9-9.9-1.2-45.6-1.2s-45.5.3-45.6 1.2c-.1 2.4.2 13.3.5 15.8.2 1.4.7 5.2 1.1 8.5 2.6 20.9 11.9 47.7 23.4 67.3 8.9 15.3 26.7 36.4 39 46.2 2.4 1.9 6 5 8 6.7 2 1.8 4.1 3.3 4.7 3.3.6 0 1.7.6 2.3 1.4 2.7 3.2 26.5 16 38.1 20.4 12 4.5 27.5 8.6 37 9.8 1.9.2 6.7.8 10.5 1.3 7 .9 33.1.7 41.4-.4 14.3-1.8 34.2-7.3 48.4-13.4 51.2-21.9 88.7-64.7 104.6-119.6 7.5-26.1 8.5-60.4 2.5-86.5-.9-3.6-1.7-7.2-1.9-8.1-1.8-8.3-9.1-27.4-14.7-38.2-5.1-9.7-15.1-24.8-21.5-32.5-8.7-10.3-24.8-25.5-32.3-30.5-1.4-.9-4.3-2.9-6.5-4.5C386.8 91 356.4 79 332.3 75.4c-2.1-.3-4.9-.8-6.3-1.2-1.4-.3-68.7-.8-149.6-.9l-147.1-.4.1 45.8z"/></svg>